#N canvas 551 329 477 426 10;
#X msg 276 136 connect 127.0.0.1 8090;
#X obj 13 163 mrpeach/udpsend;
#X obj 12 192 mrpeach/udpreceive 8091;
#X obj 13 138 mrpeach/packOSC;
#X obj 12 216 mrpeach/unpackOSC;
#X obj 130 46 loadbang;
#X obj 130 69 f \$0;
#X obj 12 47 inlet;
#X obj 276 112 loadbang;
#X obj 12 352 outlet;
#X obj 13 90 pack s f;
#X obj 13 68 list2symbol;
#X obj 216 267 loadbang;
#X obj 216 290 f \$0;
#X obj 12 329 route osc;
#X msg 217 312 symbol OSC-SC-EVAL-\$1;
#X msg 13 113 send (/osc-sc osc-sc-eval-\$2 \$1);
#X obj 12 260 symbol2list;
#X obj 12 238 symbol;
#X obj 12 282 route list /OSC-SC;
#X obj 12 305 route /OSC-SC;
#X text 6 7 OSC<->SC example patch courtesy of Simon Bahr.This needs
the zexy and mrpeach libraries.;
#X connect 0 0 1 0;
#X connect 2 0 4 0;
#X connect 3 0 1 0;
#X connect 4 0 18 0;
#X connect 5 0 6 0;
#X connect 6 0 10 1;
#X connect 7 0 11 0;
#X connect 8 0 0 0;
#X connect 10 0 16 0;
#X connect 11 0 10 0;
#X connect 12 0 13 0;
#X connect 13 0 15 0;
#X connect 14 0 9 0;
#X connect 15 0 14 1;
#X connect 16 0 3 0;
#X connect 17 0 19 0;
#X connect 18 0 17 0;
#X connect 19 0 20 0;
#X connect 20 0 14 0;
