#N canvas 79 215 477 426 10;
#X msg 276 136 connect 127.0.0.1 8090;
#X obj 13 163 mrpeach/udpsend;
#X obj 12 192 mrpeach/udpreceive 8091;
#X obj 13 138 mrpeach/packOSC;
#X obj 12 216 mrpeach/unpackOSC;
#X obj 130 46 loadbang;
#X obj 130 69 f \$0;
#X obj 12 47 inlet;
#X obj 276 112 loadbang;
#X obj 12 352 outlet;
#X obj 13 90 pack s f;
#X obj 216 267 loadbang;
#X obj 216 290 f \$0;
#X obj 12 329 route osc;
#X msg 217 312 symbol OSC-SC-EVAL-\$1;
#X msg 13 113 send (/osc-sc osc-sc-eval-\$2 \$1);
#X obj 12 238 symbol;
#X obj 12 282 route list /OSC-SC;
#X obj 12 305 route /OSC-SC;
#X text 6 7 OSC<->SC example patch courtesy of Simon Bahr.This needs
the zexy and mrpeach libraries.;
#N canvas 0 96 450 300 l2s 0;
#X obj 23 516 list tosymbol;
#X obj 86 203 list fromsymbol;
#X obj 86 149 list split 1;
#X obj 86 99 until;
#X obj 86 124 list append;
#X obj 180 149 bang;
#X obj 86 362 list prepend;
#X obj 200 362 t a;
#X obj 23 393 list append;
#X obj 86 338 list append 32;
#X obj 23 49 t b b a b, f 27;
#X obj 86 177 makefilename %s;
#X obj 23 21 inlet;
#X obj 23 540 outlet;
#X obj 167 312 list fromsymbol;
#X obj 167 262 list append \$1;
#X obj 167 237 loadbang;
#X obj 205 21 inlet;
#X obj 205 49 symbol;
#X obj 167 285 route symbol;
#X obj 23 417 t l l, f 10;
#X obj 80 443 list length;
#X obj 23 491 list split;
#X obj 80 467 - 1;
#X connect 0 0 13 0;
#X connect 1 0 9 0;
#X connect 2 0 11 0;
#X connect 2 1 4 1;
#X connect 2 2 5 0;
#X connect 3 0 4 0;
#X connect 4 0 2 0;
#X connect 5 0 3 1;
#X connect 6 0 7 0;
#X connect 6 0 8 1;
#X connect 7 0 6 1;
#X connect 8 0 20 0;
#X connect 9 0 6 0;
#X connect 10 0 8 0;
#X connect 10 1 3 0;
#X connect 10 2 4 1;
#X connect 10 3 6 1;
#X connect 10 3 8 1;
#X connect 11 0 1 0;
#X connect 12 0 10 0;
#X connect 14 0 9 1;
#X connect 15 0 19 0;
#X connect 16 0 15 0;
#X connect 17 0 18 0;
#X connect 18 0 14 0;
#X connect 19 0 14 0;
#X connect 20 0 22 0;
#X connect 20 1 21 0;
#X connect 21 0 23 0;
#X connect 22 0 0 0;
#X connect 23 0 22 1;
#X restore 12 68 pd l2s;
#N canvas 0 96 450 300 s2l 0;
#X obj 105 281 list fromsymbol;
#X obj 72 175 list split 1;
#X obj 72 118 until;
#X obj 72 146 list append;
#X obj 188 363 t l;
#X obj 105 363 list prepend;
#X obj 39 390 list append;
#X obj 39 363 spigot;
#X obj 72 332 f 1;
#X obj 105 332 t f b;
#X obj 12 363 f 0;
#X obj 39 414 route bang;
#X obj 96 461 list prepend;
#X obj 96 437 list tosymbol;
#X obj 72 306 sel 32;
#X obj 105 231 list append \$1;
#X obj 105 206 loadbang;
#X obj 33 63 list fromsymbol;
#X obj 33 38 symbol;
#X obj 33 12 inlet;
#X obj 33 484 list append;
#X obj 172 175 bang;
#X obj 33 85 t b b l b, f 20;
#X obj 178 461 t a;
#X obj 33 511 outlet;
#X obj 105 254 route symbol;
#X obj 173 38 symbol;
#X obj 173 12 inlet;
#X connect 0 0 14 1;
#X connect 1 0 14 0;
#X connect 1 1 3 1;
#X connect 1 2 21 0;
#X connect 2 0 3 0;
#X connect 3 0 1 0;
#X connect 4 0 5 1;
#X connect 5 0 4 0;
#X connect 5 0 6 1;
#X connect 6 0 11 0;
#X connect 7 0 6 0;
#X connect 7 0 5 1;
#X connect 7 0 10 0;
#X connect 8 0 7 1;
#X connect 9 0 5 0;
#X connect 9 1 7 0;
#X connect 10 0 7 1;
#X connect 11 1 13 0;
#X connect 12 0 20 1;
#X connect 12 0 23 0;
#X connect 13 0 12 0;
#X connect 14 0 8 0;
#X connect 14 1 9 0;
#X connect 15 0 25 0;
#X connect 16 0 15 0;
#X connect 17 0 22 0;
#X connect 18 0 17 0;
#X connect 19 0 18 0;
#X connect 20 0 24 0;
#X connect 21 0 6 0;
#X connect 21 0 2 1;
#X connect 22 0 20 0;
#X connect 22 1 2 0;
#X connect 22 2 3 1;
#X connect 22 3 5 1;
#X connect 22 3 12 1;
#X connect 22 3 6 1;
#X connect 22 3 20 1;
#X connect 23 0 12 1;
#X connect 25 0 0 0;
#X connect 26 0 0 0;
#X connect 27 0 26 0;
#X restore 12 260 pd s2l;
#X connect 0 0 1 0;
#X connect 2 0 4 0;
#X connect 3 0 1 0;
#X connect 4 0 16 0;
#X connect 5 0 6 0;
#X connect 6 0 10 1;
#X connect 7 0 20 0;
#X connect 8 0 0 0;
#X connect 10 0 15 0;
#X connect 11 0 12 0;
#X connect 12 0 14 0;
#X connect 13 0 9 0;
#X connect 14 0 13 1;
#X connect 15 0 3 0;
#X connect 16 0 21 0;
#X connect 17 0 18 0;
#X connect 18 0 13 0;
#X connect 20 0 10 0;
#X connect 21 0 17 0;
